<svg width="16" height="16" viewBox="0 0 16 16" fill="none" xmlns="http://www.w3.org/2000/svg">
<path d="M8.85403 8.35403L3.85403 13.354C3.76021 13.4478 3.63296 13.5006 3.50028 13.5006C3.3676 13.5006 3.24035 13.4478 3.14653 13.354C3.05271 13.2602 3 13.133 3 13.0003C3 12.8676 3.05271 12.7403 3.14653 12.6465L7.7934 8.00028L3.14653 3.35403C3.05271 3.26021 3 3.13296 3 3.00028C3 2.8676 3.05271 2.74035 3.14653 2.64653C3.24035 2.55271 3.3676 2.5 3.50028 2.5C3.63296 2.5 3.76021 2.55271 3.85403 2.64653L8.85403 7.64653C8.90052 7.69296 8.9374 7.74811 8.96256 7.80881C8.98772 7.86951 9.00067 7.93457 9.00067 8.00028C9.00067 8.06599 8.98772 8.13105 8.96256 8.19175C8.9374 8.25245 8.90052 8.30759 8.85403 8.35403ZM13.854 7.64653L8.85403 2.64653C8.76021 2.55271 8.63296 2.5 8.50028 2.5C8.3676 2.5 8.24035 2.55271 8.14653 2.64653C8.05271 2.74035 8 2.8676 8 3.00028C8 3.13296 8.05271 3.26021 8.14653 3.35403L12.7934 8.00028L8.14653 12.6465C8.05271 12.7403 8 12.8676 8 13.0003C8 13.133 8.05271 13.2602 8.14653 13.354C8.24035 13.4478 8.3676 13.5006 8.50028 13.5006C8.63296 13.5006 8.76021 13.4478 8.85403 13.354L13.854 8.35403C13.9005 8.30759 13.9374 8.25245 13.9626 8.19175C13.9877 8.13105 14.0007 8.06599 14.0007 8.00028C14.0007 7.93457 13.9877 7.86951 13.9626 7.80881C13.9374 7.74811 13.9005 7.69296 13.854 7.64653Z" fill="#64748B"/>
</svg>
